<svg width="50" height="50" viewBox="0 0 50 50" fill="none" xmlns="http://www.w3.org/2000/svg">
<path d="M19.3324 19.4205C18.9112 18.9594 18.3115 18.6894 17.6872 18.6798C16.4315 18.6636 15.3926 19.6648 15.3713 20.9196C15.3645 21.3241 15.6868 21.6575 16.0912 21.6643C16.0955 21.6644 16.0996 21.6644 16.1039 21.6644C16.5027 21.6644 16.8292 21.3446 16.836 20.9443C16.8435 20.4962 17.2118 20.1366 17.6643 20.1444C17.8902 20.1479 18.0985 20.2417 18.2509 20.4085C18.5237 20.7072 18.9871 20.7281 19.2857 20.4552C19.5843 20.1825 19.6053 19.7191 19.3324 19.4205Z" fill="#085345"/>
<path d="M23.2291 21.8076C23.0046 21.2799 22.5676 20.8634 22.0298 20.6648C20.9483 20.2659 19.7428 20.8203 19.3421 21.9005C19.2014 22.2798 19.3948 22.7012 19.774 22.842C19.858 22.8731 19.944 22.8879 20.0286 22.8879C20.3262 22.8879 20.6058 22.7052 20.7154 22.4099C20.8357 22.0855 21.1983 21.9195 21.5225 22.0391C21.6855 22.0993 21.8129 22.2207 21.8809 22.3808C22.0392 22.753 22.4695 22.9266 22.8416 22.7682C23.2139 22.6099 23.3873 22.1799 23.2291 21.8076Z" fill="#085345"/>
<path d="M27.9497 15.3207C27.6633 15.0349 27.1996 15.0355 26.9139 15.3218L26.2235 16.0136C25.9378 16.2999 25.9383 16.7637 26.2246 17.0493C26.3675 17.192 26.5547 17.2633 26.7419 17.2633C26.9296 17.2633 27.1173 17.1916 27.2603 17.0482L27.9507 16.3565C28.2365 16.0701 28.236 15.6064 27.9497 15.3207Z" fill="#085345"/>
<path d="M23.393 24.7762H22.4169C22.0123 24.7762 21.6844 25.1042 21.6844 25.5087C21.6844 25.9131 22.0123 26.2411 22.4169 26.2411H23.393C23.7976 26.2411 24.1255 25.9131 24.1255 25.5087C24.1255 25.1042 23.7976 24.7762 23.393 24.7762Z" fill="#085345"/>
<path d="M30.8776 24.7762H29.9014C29.4968 24.7762 29.1689 25.1042 29.1689 25.5087C29.1689 25.9131 29.4969 26.2411 29.9014 26.2411H30.8776C31.2821 26.2411 31.6101 25.9131 31.6101 25.5087C31.6101 25.1042 31.2821 24.7762 30.8776 24.7762Z" fill="#085345"/>
<path d="M49.9765 37.9825L49.7857 36.953C49.6642 36.2952 49.0897 35.8178 48.4199 35.8178C48.3358 35.8178 48.2511 35.8255 48.1677 35.8408L44.2849 36.5541L46.0433 35.3786C46.5041 35.0706 46.737 34.5197 46.6365 33.9731C46.6086 33.8234 46.5563 33.6797 46.4805 33.5452L45.9484 32.603C45.766 32.2792 45.4551 32.0387 45.0962 31.9434C44.9204 31.8965 44.7366 31.8861 44.5573 31.9094C44.7531 30.8287 44.8541 29.725 44.8541 28.6015C44.8541 28.103 44.5543 27.674 44.1261 27.4834C44.6857 26.1526 44.7238 24.629 44.1707 23.2337C44.1259 23.1202 44.0593 23.0189 43.9731 22.9326C43.8875 22.847 43.7874 22.7809 43.6738 22.7353C43.0111 22.4714 42.3145 22.3376 41.6034 22.3376C41.5125 22.3376 41.422 22.3399 41.3318 22.3442C41.2303 20.3 39.5384 18.6681 37.473 18.6681C37.201 18.6681 36.9358 18.697 36.6796 18.7509C36.8576 17.6864 36.7528 16.5728 36.3382 15.5273C36.2937 15.4124 36.2268 15.3093 36.1359 15.2169C36.0484 15.1294 35.9458 15.0619 35.8319 15.0167C35.1179 14.7323 34.3675 14.5882 33.6015 14.5882C32.4476 14.5882 31.3438 14.9126 30.3909 15.5157C30.0428 14.5072 29.4686 13.5605 28.6665 12.7565C28.4315 12.5211 28.119 12.3914 27.7865 12.3914C27.454 12.3914 27.1415 12.5211 26.9062 12.7567L23.3601 16.3109C22.7038 15.7256 21.8402 15.3757 20.9029 15.3757C20.6902 15.3757 20.4755 15.3943 20.2647 15.4311C19.5007 15.5641 18.7977 15.938 18.2587 16.4856C17.5676 16.1521 16.7759 16.0384 16.0151 16.1708C15.8477 16.1999 15.6853 16.2409 15.5277 16.2909V13.5521C15.5277 11.6659 14.0118 10.1287 12.1366 10.0963V8.54299C12.7106 8.44368 13.1489 7.94339 13.1489 7.34144V3.82202C13.1489 3.14897 12.6013 2.60132 11.9282 2.60132H5.97205C5.2989 2.60132 4.75135 3.14897 4.75135 3.82202V7.34144C4.75135 7.94339 5.18963 8.44368 5.76365 8.54299V10.0961C3.88846 10.1284 2.37265 11.6656 2.37265 13.5519V34.9283C0.910348 36.2489 0 38.0916 0 40.1293C0 44.1377 3.51805 47.3988 7.84245 47.3988L37.1575 47.3902C38.1581 47.3898 39.0991 46.9501 39.7391 46.1839C40.3625 45.438 40.6275 44.4691 40.4748 43.5137L46.33 44.5659C46.411 44.5805 46.4941 44.5879 46.5764 44.5879C46.8684 44.5879 47.1482 44.4982 47.3851 44.3289C47.6897 44.1113 47.8958 43.7745 47.9508 43.4051L48.1094 42.3409C48.1322 42.1885 48.1297 42.035 48.1019 41.8845C48.0011 41.3403 47.5867 40.9086 47.0462 40.7848L44.9824 40.3113L48.8614 39.5987C49.2272 39.5315 49.5446 39.3262 49.7552 39.0204C49.9653 38.7154 50.0438 38.3469 49.9765 37.9825ZM41.6034 23.8022C42.0444 23.8022 42.4779 23.872 42.8947 24.0096C43.2671 25.1438 43.1277 26.3671 42.5445 27.3777H40.5714L41.201 26.7466C41.4867 26.4603 41.4862 25.9965 41.1997 25.7108C40.9133 25.4251 40.4495 25.4255 40.164 25.712L39.8309 26.0459C39.6747 25.5317 39.4021 25.0713 39.0437 24.6937C39.7706 24.1165 40.663 23.8022 41.6034 23.8022ZM37.473 20.1327C38.7957 20.1327 39.8718 21.212 39.8718 22.5386C39.8718 22.5633 39.8706 22.5876 39.87 22.612C39.0979 22.8631 38.3863 23.2825 37.7793 23.8521C37.6828 23.8155 37.5848 23.7815 37.4842 23.7537C37.27 22.5963 36.49 21.6685 35.4596 21.2352C35.8873 20.5727 36.6292 20.1327 37.473 20.1327ZM33.6014 16.0528C34.0989 16.0528 34.5878 16.1333 35.0588 16.2925C35.4375 17.4183 35.3601 18.6275 34.8777 19.675C34.4811 20.0362 34.1593 20.4786 33.9394 20.9759C33.8087 20.9835 33.6779 20.9979 33.5487 21.0204C32.9748 21.1203 32.4396 21.3693 31.9918 21.7304C31.839 21.4511 31.652 21.1934 31.4378 20.9614L33.1173 19.278C33.4031 18.9917 33.4025 18.5279 33.1161 18.2423C32.8298 17.9565 32.366 17.957 32.0802 18.2434L30.2445 20.0834C29.8952 19.9182 29.5177 19.8034 29.1209 19.7497C29.2923 18.8757 29.7164 18.0521 30.3724 17.3945C31.2356 16.5293 32.3824 16.0528 33.6014 16.0528ZM27.9891 27.3777H27.3543C27.2474 27.1056 26.983 26.9127 26.6729 26.9127C26.3629 26.9127 26.0985 27.1057 25.9916 27.3777H25.2447C25.4182 27.0953 25.3831 26.7211 25.1383 26.4767C24.852 26.191 24.3882 26.1915 24.1024 26.4778L23.4121 27.1696C23.3501 27.2317 23.3024 27.3025 23.2674 27.3777H21.7767C21.2184 26.521 20.8777 25.5097 20.8373 24.4218H32.457C32.4167 25.5097 32.0759 26.521 31.5176 27.3777H29.9664C29.9314 27.3025 29.8836 27.2316 29.8217 27.1695L29.1314 26.4777C28.8456 26.1915 28.382 26.1907 28.0957 26.4765C27.8507 26.7209 27.8156 27.0952 27.9891 27.3777ZM26.2857 22.957C26.5618 21.9339 27.4951 21.1789 28.6012 21.1789C29.7073 21.1789 30.6406 21.934 30.9167 22.957H26.2857ZM27.7835 13.9511C28.4802 14.704 28.9408 15.5979 29.1667 16.5376C28.7928 16.9439 28.4821 17.393 28.2371 17.8708C28.1259 17.8026 27.9955 17.7627 27.8556 17.7627H26.8796C26.4751 17.7627 26.1472 18.0906 26.1472 18.4951C26.1472 18.8996 26.4751 19.2275 26.8796 19.2275H27.7357C27.6876 19.4298 27.6502 19.6345 27.623 19.8407C27.3322 19.9171 27.0545 20.0259 26.7945 20.1643C26.3063 19.3219 25.4979 18.694 24.5401 18.4422C24.5398 18.4401 24.5395 18.4381 24.5391 18.436C24.4816 18.1046 24.3814 17.7901 24.2448 17.4978L27.7835 13.9511ZM14.5435 20.56C14.5005 20.4399 14.468 20.3167 14.4466 20.193C14.2366 18.982 15.053 17.825 16.2661 17.6138C16.3941 17.5915 16.5241 17.5802 16.6524 17.5802C17.1349 17.5802 17.596 17.7341 17.9858 18.0252C18.147 18.1457 18.3509 18.1944 18.5493 18.16C18.7478 18.1256 18.9233 18.011 19.0346 17.8432C19.3784 17.3245 19.9045 16.9804 20.5158 16.8739C20.6441 16.8516 20.7743 16.8403 20.9029 16.8403C21.9881 16.8403 22.9104 17.6167 23.0957 18.6865C23.117 18.8091 23.1279 18.9368 23.1281 19.0662C23.1288 19.4453 23.4188 19.7613 23.7965 19.7945C24.6153 19.8665 25.3124 20.3818 25.6355 21.1078C25.2029 21.627 24.903 22.261 24.7892 22.957H20.6122C20.0929 22.957 19.6473 23.2776 19.4614 23.7313C18.5425 23.1054 17.4595 22.7682 16.3245 22.7682C15.6135 22.7682 14.9169 22.9021 14.2537 23.1662C14.1412 23.2111 14.0406 23.2774 13.9548 23.3632C13.8679 23.4501 13.8012 23.5519 13.7575 23.6636C13.5889 24.0887 13.4765 24.5257 13.4158 24.9655C13.1533 24.6667 12.9683 24.2951 12.896 23.8781C12.7238 22.8843 13.244 21.8949 14.1607 21.4719C14.5052 21.3129 14.6713 20.9172 14.5435 20.56ZM16.7269 27.1774L16.9267 27.3777H15.1676C14.7727 26.4615 14.7127 25.4186 15.0333 24.4405C15.4507 24.3027 15.884 24.233 16.3245 24.233C17.4282 24.233 18.4663 24.6643 19.2477 25.4474C19.3516 25.5516 19.4484 25.6608 19.5393 25.7736C19.6634 26.3355 19.8541 26.8723 20.0998 27.3776H18.996L17.7639 26.1426C17.4781 25.8564 17.0143 25.8556 16.7282 26.1415C16.4417 26.4273 16.4411 26.8911 16.7269 27.1774ZM13.6078 27.3777H10.9967C11.1131 26.6682 11.5399 26.0634 12.1323 25.7068C12.483 26.1766 12.9407 26.5565 13.468 26.8138C13.5053 27.0039 13.5511 27.1922 13.6078 27.3777ZM6.21619 4.06616H11.684V7.0973H6.21619V4.06616ZM10.6717 8.56214V10.0946H7.22858V8.56214H10.6717ZM3.83758 16.5222H8.59372C8.9983 16.5222 9.32613 16.1942 9.32613 15.7897C9.32613 15.3853 8.9983 15.0573 8.59372 15.0573H3.83758V13.5519C3.83758 12.4532 4.72859 11.5595 5.82381 11.5595H12.0765C13.1718 11.5595 14.0628 12.4532 14.0628 13.5519V15.0573H12.6953C12.2907 15.0573 11.9628 15.3853 11.9628 15.7897C11.9628 16.1942 12.2907 16.5222 12.6953 16.5222H14.0628V17.1723C13.2237 17.995 12.7878 19.2015 13.0031 20.4427C13.0035 20.4451 13.004 20.4476 13.0043 20.4502C11.8293 21.2563 11.2033 22.6895 11.4526 24.1283C11.4671 24.2123 11.4854 24.2949 11.5053 24.3766C11.1394 24.5784 10.8108 24.8389 10.5292 25.1438H3.83758V16.5222ZM3.83748 26.6085H9.67867C9.60094 26.8554 9.54606 27.1124 9.5193 27.3777H9.39586C8.72174 27.3777 8.17321 27.9266 8.17321 28.6013C8.17321 29.7643 8.28131 30.906 8.49079 32.023C8.28034 32.0061 8.06452 31.997 7.84499 31.997C6.95925 31.997 6.11531 32.1375 5.46892 32.3928C4.48016 32.7832 4.20682 33.3376 4.14715 33.7212C4.04237 33.7734 3.93944 33.8284 3.83748 33.8848V26.6085ZM13.112 35.6061C13.3757 35.8171 13.537 35.9965 13.6304 36.1259C13.6216 36.126 13.6124 36.1261 13.6032 36.1261C13.1886 36.1261 12.4438 35.959 11.5968 35.4902C11.2815 35.3155 10.991 35.1181 10.7566 34.9196C10.4834 34.688 10.0827 34.6882 9.80963 34.9197C9.57525 35.1184 9.28483 35.3156 8.96979 35.49C8.12262 35.959 7.3778 36.1261 6.96335 36.1261C6.95388 36.1261 6.9448 36.126 6.93591 36.1259C7.02927 35.9965 7.1905 35.817 7.45436 35.6059C7.68493 35.4213 7.7821 35.1162 7.70075 34.8323C7.61931 34.5484 7.37536 34.341 7.08191 34.3067C6.36716 34.2229 5.91521 34.0409 5.70359 33.9085C5.96873 33.7434 6.63904 33.4618 7.84528 33.4618C8.8443 33.4618 9.57447 33.6719 9.92467 33.8686C10.1474 33.9936 10.419 33.9936 10.6418 33.8687C10.9921 33.672 11.7224 33.4619 12.7214 33.4619C13.9278 33.4619 14.598 33.7436 14.863 33.9086C14.6515 34.0411 14.1995 34.223 13.4845 34.3068C13.1911 34.3412 12.947 34.5485 12.8657 34.8325C12.784 35.1165 12.8812 35.4216 13.112 35.6061ZM11.6468 44.5207L11.672 44.6564C11.7591 45.1268 11.9428 45.5586 12.1995 45.934H7.84245C4.32586 45.934 1.46484 43.3301 1.46484 40.1293C1.46484 37.9419 2.80155 36.0341 4.7699 35.0448C4.99598 35.2136 5.27781 35.3591 5.61218 35.4765C5.47957 35.7029 5.38719 35.9465 5.36541 36.2005C5.3365 36.5382 5.43982 36.8589 5.65662 37.1036C5.94304 37.4271 6.38269 37.591 6.96335 37.591C7.73718 37.591 8.7525 37.2847 9.67926 36.7716C9.89264 36.6535 10.0944 36.5288 10.2833 36.3985C10.472 36.5287 10.6738 36.6534 10.8873 36.7717C11.814 37.2847 12.8293 37.5909 13.6032 37.591H13.6033C14.1837 37.591 14.6234 37.4271 14.9097 37.1037C15.1266 36.859 15.23 36.5383 15.201 36.2005C15.1792 35.9465 15.0869 35.7029 14.9542 35.4765C15.2886 35.359 15.5705 35.2135 15.7966 35.0448C17.3576 35.8294 18.5208 37.1918 18.9356 38.8132L13.7554 40.7811C12.2391 41.3572 11.3523 42.9299 11.6468 44.5207ZM38.6149 45.2447C38.2538 45.6771 37.7222 45.9252 37.1568 45.9254L36.388 45.9257L35.9078 43.3324C35.834 42.9347 35.4521 42.6717 35.0542 42.7456C34.6565 42.8192 34.3937 43.2014 34.4673 43.5991L34.8984 45.9262L32.3783 45.9271L32.0536 44.1735C31.9799 43.7758 31.5978 43.5131 31.2 43.5867C30.8023 43.6603 30.5395 44.0425 30.6132 44.4402L30.8885 45.9277L25.0268 45.93L24.5855 43.5483C24.5117 43.1506 24.1299 42.8879 23.7319 42.9616C23.3342 43.0352 23.0715 43.4175 23.1451 43.8152L23.537 45.9305L14.9781 45.9339C14.9779 45.9339 14.9777 45.9339 14.9775 45.9339C14.0622 45.9339 13.2779 45.2845 13.1121 44.3893L13.0869 44.2536C12.9213 43.3595 13.4211 42.475 14.2753 42.1504L17.1539 41.0568L17.3684 42.2143C17.4337 42.5669 17.7415 42.8134 18.0876 42.8134C18.132 42.8134 18.1769 42.8093 18.222 42.801C18.6197 42.7272 18.8823 42.3451 18.8086 41.9474L18.5456 40.5281L22.8186 38.9049C23.1967 38.7612 23.3868 38.3382 23.2432 37.9601C23.0995 37.5818 22.676 37.3918 22.2984 37.5355L20.3101 38.2908C19.7523 36.3159 18.3193 34.6662 16.419 33.7211C16.3593 33.3375 16.086 32.7831 15.0973 32.3927C14.4509 32.1374 13.607 31.9969 12.7212 31.9969C12.1117 31.9969 11.5295 32.0642 11.0157 32.1867V31.7444C11.0157 31.3399 10.6878 31.0119 10.2833 31.0119C10.1123 31.0119 9.95543 31.0709 9.83072 31.1692C9.7152 30.4052 9.65055 29.6292 9.63981 28.8423H33.496C33.9005 28.8423 34.2284 28.5144 34.2284 28.1099C34.2284 27.7054 33.9005 27.3775 33.496 27.3775H33.1963C33.6627 26.4169 33.9261 25.34 33.9261 24.2018C33.9261 23.5556 33.4317 23.0233 32.8016 22.9629C33.0759 22.7042 33.4183 22.5298 33.8 22.4633C33.9118 22.4438 34.0253 22.434 34.1374 22.434C35.083 22.434 35.8865 23.1104 36.0479 24.0423C36.0666 24.1502 36.0761 24.2615 36.0762 24.3733C36.0767 24.7526 36.3667 25.0688 36.7446 25.102C37.6199 25.1789 38.336 25.8372 38.4861 26.7028C38.5259 26.933 38.5209 27.1601 38.481 27.3775H37.6952C37.2906 27.3775 36.9627 27.7054 36.9627 28.1099C36.9627 28.5144 37.2906 28.8423 37.6952 28.8423H43.3877C43.3696 30.1859 43.1965 31.4983 42.8738 32.7716L38.9044 35.1148C38.6617 34.2698 38.0974 33.5532 37.32 33.118C36.448 32.63 35.4118 32.5537 34.4772 32.9087L26.3023 36.0144C25.9241 36.158 25.7341 36.5811 25.8777 36.9592C26.0214 37.3374 26.4448 37.5273 26.8225 37.3838L27.8994 36.9747L28.2338 38.7801C28.2991 39.1327 28.6069 39.3793 28.9531 39.3793C28.9973 39.3793 29.0423 39.3752 29.0874 39.3669C29.485 39.2933 29.7478 38.9111 29.6742 38.5134L29.2913 36.446L34.9972 34.2783C35.5259 34.0776 36.1117 34.1206 36.6045 34.3965C37.0965 34.6718 37.4374 35.1464 37.5397 35.6984L39.0214 43.6978C39.1236 44.2495 38.9754 44.8133 38.6149 45.2447ZM41.2282 39.5117C40.8865 39.5745 40.636 39.8687 40.6283 40.216C40.6206 40.5634 40.8581 40.8683 41.1967 40.9459L46.6498 42.1967L46.5136 43.1106L40.1919 41.9746L39.2038 36.6393L44.71 33.3889L45.1687 34.2011L40.5244 37.3057C40.2356 37.4987 40.1221 37.8681 40.2528 38.19C40.3833 38.5118 40.7222 38.6978 41.0638 38.635L48.3593 37.2948L48.5218 38.1718L41.2282 39.5117Z" fill="#085345"/>
</svg>
